<mxfile host="app.diagrams.net" modified="2023-06-20T06:23:13.399Z" agent="Mozilla/5.0 (Windows NT 10.0; Win64; x64) AppleWebKit/537.36 (KHTML, like Gecko) Chrome/114.0.0.0 Safari/537.36" version="21.5.0" etag="HL-xiFhKnWPxjDgR21Qm" type="device">
  <diagram id="Bqv--yrmD6i05b7i2ewA" name="第 1 页">
    <mxGraphModel dx="2261" dy="788" grid="1" gridSize="10" guides="1" tooltips="1" connect="1" arrows="1" fold="1" page="1" pageScale="1" pageWidth="827" pageHeight="1169" math="0" shadow="0">
      <root>
        <mxCell id="0" />
        <mxCell id="1" parent="0" />
        <mxCell id="QkybNP-2i987mdKHg9CO-6" value="" style="edgeStyle=orthogonalEdgeStyle;rounded=0;orthogonalLoop=1;jettySize=auto;html=1;" edge="1" parent="1" source="QkybNP-2i987mdKHg9CO-2" target="QkybNP-2i987mdKHg9CO-5">
          <mxGeometry relative="1" as="geometry">
            <Array as="points">
              <mxPoint x="240" y="460" />
              <mxPoint x="20" y="460" />
            </Array>
          </mxGeometry>
        </mxCell>
        <mxCell id="QkybNP-2i987mdKHg9CO-10" style="edgeStyle=orthogonalEdgeStyle;rounded=0;orthogonalLoop=1;jettySize=auto;html=1;" edge="1" parent="1" source="QkybNP-2i987mdKHg9CO-2" target="QkybNP-2i987mdKHg9CO-9">
          <mxGeometry relative="1" as="geometry">
            <Array as="points">
              <mxPoint x="240" y="380" />
              <mxPoint x="240" y="380" />
            </Array>
          </mxGeometry>
        </mxCell>
        <mxCell id="QkybNP-2i987mdKHg9CO-12" style="edgeStyle=orthogonalEdgeStyle;rounded=0;orthogonalLoop=1;jettySize=auto;html=1;" edge="1" parent="1" source="QkybNP-2i987mdKHg9CO-2" target="QkybNP-2i987mdKHg9CO-7">
          <mxGeometry relative="1" as="geometry">
            <Array as="points">
              <mxPoint x="240" y="460" />
              <mxPoint x="465" y="460" />
            </Array>
          </mxGeometry>
        </mxCell>
        <mxCell id="QkybNP-2i987mdKHg9CO-2" value="&lt;font style=&quot;font-size: 15px;&quot;&gt;Company&lt;/font&gt;" style="rounded=0;whiteSpace=wrap;html=1;" vertex="1" parent="1">
          <mxGeometry x="150" y="260" width="180" height="60" as="geometry" />
        </mxCell>
        <mxCell id="QkybNP-2i987mdKHg9CO-17" value="" style="edgeStyle=orthogonalEdgeStyle;rounded=0;orthogonalLoop=1;jettySize=auto;html=1;" edge="1" parent="1" source="QkybNP-2i987mdKHg9CO-3" target="QkybNP-2i987mdKHg9CO-16">
          <mxGeometry relative="1" as="geometry" />
        </mxCell>
        <mxCell id="QkybNP-2i987mdKHg9CO-3" value="&lt;font style=&quot;font-size: 16px;&quot;&gt;HumanResource&lt;/font&gt;" style="rounded=0;whiteSpace=wrap;html=1;" vertex="1" parent="1">
          <mxGeometry x="-591" y="1169" width="180" height="60" as="geometry" />
        </mxCell>
        <mxCell id="QkybNP-2i987mdKHg9CO-14" style="edgeStyle=orthogonalEdgeStyle;rounded=0;orthogonalLoop=1;jettySize=auto;html=1;" edge="1" parent="1" source="QkybNP-2i987mdKHg9CO-4" target="QkybNP-2i987mdKHg9CO-13">
          <mxGeometry relative="1" as="geometry" />
        </mxCell>
        <mxCell id="QkybNP-2i987mdKHg9CO-4" value="&lt;font style=&quot;font-size: 16px;&quot;&gt;Global&lt;/font&gt;" style="rounded=0;whiteSpace=wrap;html=1;" vertex="1" parent="1">
          <mxGeometry x="630" y="260" width="180" height="60" as="geometry" />
        </mxCell>
        <mxCell id="QkybNP-2i987mdKHg9CO-5" value="&lt;font style=&quot;font-size: 15px;&quot;&gt;Models(用來管理user)&lt;br&gt;&lt;/font&gt;" style="rounded=0;whiteSpace=wrap;html=1;" vertex="1" parent="1">
          <mxGeometry x="-70" y="585" width="180" height="60" as="geometry" />
        </mxCell>
        <mxCell id="QkybNP-2i987mdKHg9CO-7" value="&lt;font style=&quot;font-size: 16px;&quot;&gt;admin(將權限設計於此)&lt;/font&gt;" style="rounded=0;whiteSpace=wrap;html=1;" vertex="1" parent="1">
          <mxGeometry x="360" y="585" width="230" height="60" as="geometry" />
        </mxCell>
        <mxCell id="QkybNP-2i987mdKHg9CO-25" value="" style="edgeStyle=orthogonalEdgeStyle;rounded=0;orthogonalLoop=1;jettySize=auto;html=1;" edge="1" parent="1" source="QkybNP-2i987mdKHg9CO-9" target="QkybNP-2i987mdKHg9CO-24">
          <mxGeometry relative="1" as="geometry" />
        </mxCell>
        <mxCell id="QkybNP-2i987mdKHg9CO-9" value="&lt;font style=&quot;font-size: 15px;&quot;&gt;公司的index&lt;br&gt;&lt;/font&gt;" style="rounded=0;whiteSpace=wrap;html=1;" vertex="1" parent="1">
          <mxGeometry x="150" y="585" width="180" height="60" as="geometry" />
        </mxCell>
        <mxCell id="QkybNP-2i987mdKHg9CO-13" value="&lt;font style=&quot;font-size: 16px;&quot;&gt;表單全域模板&lt;br&gt;&lt;/font&gt;" style="rounded=0;whiteSpace=wrap;html=1;" vertex="1" parent="1">
          <mxGeometry x="630" y="585" width="180" height="60" as="geometry" />
        </mxCell>
        <mxCell id="QkybNP-2i987mdKHg9CO-21" value="" style="edgeStyle=orthogonalEdgeStyle;rounded=0;orthogonalLoop=1;jettySize=auto;html=1;" edge="1" parent="1" source="QkybNP-2i987mdKHg9CO-16" target="QkybNP-2i987mdKHg9CO-20">
          <mxGeometry relative="1" as="geometry" />
        </mxCell>
        <mxCell id="QkybNP-2i987mdKHg9CO-23" style="edgeStyle=orthogonalEdgeStyle;rounded=0;orthogonalLoop=1;jettySize=auto;html=1;" edge="1" parent="1" source="QkybNP-2i987mdKHg9CO-16" target="QkybNP-2i987mdKHg9CO-22">
          <mxGeometry relative="1" as="geometry" />
        </mxCell>
        <mxCell id="QkybNP-2i987mdKHg9CO-16" value="&lt;font style=&quot;font-size: 16px;&quot;&gt;首頁&lt;/font&gt;" style="rounded=0;whiteSpace=wrap;html=1;" vertex="1" parent="1">
          <mxGeometry x="-591" y="1319" width="180" height="60" as="geometry" />
        </mxCell>
        <mxCell id="QkybNP-2i987mdKHg9CO-38" style="edgeStyle=orthogonalEdgeStyle;rounded=0;orthogonalLoop=1;jettySize=auto;html=1;entryX=0.5;entryY=0;entryDx=0;entryDy=0;" edge="1" parent="1" source="QkybNP-2i987mdKHg9CO-18" target="QkybNP-2i987mdKHg9CO-3">
          <mxGeometry relative="1" as="geometry">
            <Array as="points">
              <mxPoint x="20" y="1090" />
              <mxPoint x="-501" y="1090" />
            </Array>
          </mxGeometry>
        </mxCell>
        <mxCell id="QkybNP-2i987mdKHg9CO-40" style="edgeStyle=orthogonalEdgeStyle;rounded=0;orthogonalLoop=1;jettySize=auto;html=1;" edge="1" parent="1" source="QkybNP-2i987mdKHg9CO-18" target="QkybNP-2i987mdKHg9CO-30">
          <mxGeometry relative="1" as="geometry" />
        </mxCell>
        <mxCell id="QkybNP-2i987mdKHg9CO-18" value="&lt;font style=&quot;font-size: 15px;&quot;&gt;表單申請&lt;br&gt;&lt;/font&gt;" style="rounded=0;whiteSpace=wrap;html=1;" vertex="1" parent="1">
          <mxGeometry x="-70" y="920" width="180" height="60" as="geometry" />
        </mxCell>
        <mxCell id="QkybNP-2i987mdKHg9CO-20" value="&lt;span style=&quot;font-size: 16px;&quot;&gt;部門公有表單&lt;br&gt;&lt;/span&gt;" style="rounded=0;whiteSpace=wrap;html=1;" vertex="1" parent="1">
          <mxGeometry x="-760" y="1539" width="180" height="60" as="geometry" />
        </mxCell>
        <mxCell id="QkybNP-2i987mdKHg9CO-22" value="&lt;font style=&quot;font-size: 16px;&quot;&gt;部門私有表單&lt;br&gt;&lt;/font&gt;" style="rounded=0;whiteSpace=wrap;html=1;" vertex="1" parent="1">
          <mxGeometry x="-451" y="1539" width="180" height="60" as="geometry" />
        </mxCell>
        <mxCell id="QkybNP-2i987mdKHg9CO-26" style="edgeStyle=orthogonalEdgeStyle;rounded=0;orthogonalLoop=1;jettySize=auto;html=1;entryX=0.5;entryY=0;entryDx=0;entryDy=0;" edge="1" parent="1" source="QkybNP-2i987mdKHg9CO-24" target="QkybNP-2i987mdKHg9CO-18">
          <mxGeometry relative="1" as="geometry">
            <Array as="points">
              <mxPoint x="240" y="860" />
              <mxPoint x="20" y="860" />
            </Array>
          </mxGeometry>
        </mxCell>
        <mxCell id="QkybNP-2i987mdKHg9CO-28" style="edgeStyle=orthogonalEdgeStyle;rounded=0;orthogonalLoop=1;jettySize=auto;html=1;" edge="1" parent="1" source="QkybNP-2i987mdKHg9CO-24" target="QkybNP-2i987mdKHg9CO-27">
          <mxGeometry relative="1" as="geometry">
            <Array as="points">
              <mxPoint x="240" y="860" />
              <mxPoint x="400" y="860" />
            </Array>
          </mxGeometry>
        </mxCell>
        <mxCell id="QkybNP-2i987mdKHg9CO-24" value="&lt;font style=&quot;font-size: 15px;&quot;&gt;表單專區&lt;br&gt;&lt;/font&gt;" style="rounded=0;whiteSpace=wrap;html=1;" vertex="1" parent="1">
          <mxGeometry x="150" y="725" width="180" height="60" as="geometry" />
        </mxCell>
        <mxCell id="QkybNP-2i987mdKHg9CO-42" value="" style="edgeStyle=orthogonalEdgeStyle;rounded=0;orthogonalLoop=1;jettySize=auto;html=1;" edge="1" parent="1" source="QkybNP-2i987mdKHg9CO-27" target="QkybNP-2i987mdKHg9CO-41">
          <mxGeometry relative="1" as="geometry" />
        </mxCell>
        <mxCell id="QkybNP-2i987mdKHg9CO-27" value="&lt;font style=&quot;font-size: 15px;&quot;&gt;表單查詢&lt;br&gt;&lt;/font&gt;" style="rounded=0;whiteSpace=wrap;html=1;" vertex="1" parent="1">
          <mxGeometry x="320" y="920" width="180" height="60" as="geometry" />
        </mxCell>
        <mxCell id="QkybNP-2i987mdKHg9CO-30" value="&lt;font style=&quot;font-size: 15px;&quot;&gt;資訊課&lt;br&gt;&lt;/font&gt;" style="rounded=0;whiteSpace=wrap;html=1;" vertex="1" parent="1">
          <mxGeometry x="-70" y="1169" width="180" height="60" as="geometry" />
        </mxCell>
        <mxCell id="QkybNP-2i987mdKHg9CO-32" value="" style="edgeStyle=orthogonalEdgeStyle;rounded=0;orthogonalLoop=1;jettySize=auto;html=1;" edge="1" parent="1" target="QkybNP-2i987mdKHg9CO-35">
          <mxGeometry relative="1" as="geometry">
            <mxPoint x="19" y="1229" as="sourcePoint" />
          </mxGeometry>
        </mxCell>
        <mxCell id="QkybNP-2i987mdKHg9CO-33" value="" style="edgeStyle=orthogonalEdgeStyle;rounded=0;orthogonalLoop=1;jettySize=auto;html=1;" edge="1" parent="1" source="QkybNP-2i987mdKHg9CO-35" target="QkybNP-2i987mdKHg9CO-36">
          <mxGeometry relative="1" as="geometry" />
        </mxCell>
        <mxCell id="QkybNP-2i987mdKHg9CO-34" style="edgeStyle=orthogonalEdgeStyle;rounded=0;orthogonalLoop=1;jettySize=auto;html=1;" edge="1" parent="1" source="QkybNP-2i987mdKHg9CO-35" target="QkybNP-2i987mdKHg9CO-37">
          <mxGeometry relative="1" as="geometry" />
        </mxCell>
        <mxCell id="QkybNP-2i987mdKHg9CO-35" value="&lt;font style=&quot;font-size: 16px;&quot;&gt;首頁&lt;/font&gt;" style="rounded=0;whiteSpace=wrap;html=1;" vertex="1" parent="1">
          <mxGeometry x="-71" y="1319" width="180" height="60" as="geometry" />
        </mxCell>
        <mxCell id="QkybNP-2i987mdKHg9CO-36" value="&lt;span style=&quot;font-size: 16px;&quot;&gt;部門公有表單&lt;br&gt;&lt;/span&gt;" style="rounded=0;whiteSpace=wrap;html=1;" vertex="1" parent="1">
          <mxGeometry x="-240" y="1539" width="180" height="60" as="geometry" />
        </mxCell>
        <mxCell id="QkybNP-2i987mdKHg9CO-37" value="&lt;font style=&quot;font-size: 16px;&quot;&gt;部門私有表單&lt;br&gt;&lt;/font&gt;" style="rounded=0;whiteSpace=wrap;html=1;" vertex="1" parent="1">
          <mxGeometry x="69" y="1539" width="180" height="60" as="geometry" />
        </mxCell>
        <mxCell id="QkybNP-2i987mdKHg9CO-41" value="&lt;font style=&quot;font-size: 15px;&quot;&gt;個人表單&lt;br&gt;&lt;/font&gt;" style="rounded=0;whiteSpace=wrap;html=1;" vertex="1" parent="1">
          <mxGeometry x="320" y="1169" width="180" height="60" as="geometry" />
        </mxCell>
      </root>
    </mxGraphModel>
  </diagram>
</mxfile>
